<svg xmlns="http://www.w3.org/2000/svg" width="76" height="21" viewBox="0 0 76 21" fill="none"><path d="M11.398 17.8906C10.773 17.8776 9.99831 17.8646 9.07383 17.8516C8.14935 17.8385 7.19232 17.832 6.20274 17.832C5.21315 17.832 4.25612 17.8385 3.33164 17.8516C2.40716 17.8646 1.62591 17.8776 0.987892 17.8906V17.207C1.37852 17.207 1.69753 17.181 1.94492 17.1289C2.19232 17.0768 2.38112 16.9792 2.51133 16.8359C2.64154 16.6927 2.72617 16.4909 2.76524 16.2305C2.81732 15.9701 2.84336 15.6185 2.84336 15.1758V5.74219C2.84336 5.33854 2.81732 5.01953 2.76524 4.78516C2.72617 4.55078 2.64154 4.36849 2.51133 4.23828C2.38112 4.12109 2.19232 4.04948 1.94492 4.02344C1.69753 3.98438 1.37852 3.95833 0.987892 3.94531V3.20312C1.22227 3.22917 1.58685 3.2487 2.08164 3.26172C2.58945 3.26172 3.12331 3.26172 3.6832 3.26172C4.25612 3.26172 4.803 3.26172 5.32383 3.26172C5.84466 3.2487 6.2418 3.22917 6.51524 3.20312V3.94531C6.11159 3.95833 5.78607 3.98438 5.53867 4.02344C5.29128 4.04948 5.09597 4.1276 4.95274 4.25781C4.82253 4.375 4.73138 4.55078 4.6793 4.78516C4.64024 5.01953 4.6207 5.33854 4.6207 5.74219V15.1758C4.6207 15.6055 4.66628 15.944 4.75742 16.1914C4.84857 16.4388 5.02435 16.6276 5.28477 16.7578C5.53216 16.888 5.88373 16.9727 6.33945 17.0117C6.8082 17.0378 7.40716 17.0508 8.13633 17.0508C8.65716 17.0508 9.09336 17.0247 9.44492 16.9727C9.80951 16.9076 10.1155 16.7839 10.3629 16.6016C10.5973 16.4062 10.7991 16.1458 10.9684 15.8203C11.1376 15.4818 11.2939 15.0391 11.4371 14.4922H12.2379L11.398 17.8906ZM15.9637 15.293C15.7293 15.944 15.6772 16.4258 15.8074 16.7383C15.9507 17.0378 16.452 17.1875 17.3113 17.1875V17.8906C16.9988 17.8906 16.6342 17.8906 16.2176 17.8906C15.8139 17.8776 15.3973 17.8711 14.9676 17.8711C14.5379 17.8711 14.1147 17.8776 13.698 17.8906C13.2944 17.8906 12.9363 17.8906 12.6238 17.8906V17.1484C12.9754 17.1484 13.2619 17.1159 13.4832 17.0508C13.7046 16.9857 13.8934 16.875 14.0496 16.7188C14.2059 16.5625 14.3426 16.3607 14.4598 16.1133C14.577 15.8529 14.7072 15.5339 14.8504 15.1562L19.2059 2.63672H19.9676L24.2059 15.1953C24.3361 15.5859 24.4663 15.9049 24.5965 16.1523C24.7267 16.3997 24.8764 16.5951 25.0457 16.7383C25.215 16.8945 25.4103 17.0052 25.6316 17.0703C25.866 17.1354 26.1525 17.181 26.491 17.207V17.8906C26.1785 17.8906 25.7879 17.8906 25.3191 17.8906C24.8634 17.8776 24.3947 17.8711 23.9129 17.8711C23.4181 17.8711 22.9428 17.8776 22.4871 17.8906C22.0314 17.8906 21.6473 17.8906 21.3348 17.8906V17.1875C21.7514 17.1875 22.0704 17.168 22.2918 17.1289C22.5262 17.0768 22.6824 16.9792 22.7605 16.8359C22.8387 16.7057 22.8517 16.5169 22.7996 16.2695C22.7475 16.0091 22.6564 15.6706 22.5262 15.2539L21.5887 12.4609H16.9598L15.9637 15.293ZM21.3152 11.582L19.3035 5.625L17.2527 11.582H21.3152ZM41.3301 18.1055H40.4316L30.6074 5.9375V15.2148C30.6074 15.6706 30.627 16.0286 30.666 16.2891C30.7181 16.5495 30.8158 16.7448 30.959 16.875C31.0892 17.0182 31.278 17.1094 31.5254 17.1484C31.7728 17.1745 32.0983 17.1875 32.502 17.1875V17.8906C32.1764 17.8906 31.7793 17.8906 31.3105 17.8906C30.8548 17.8776 30.3796 17.8711 29.8848 17.8711C29.39 17.8711 28.9082 17.8776 28.4395 17.8906C27.9837 17.8906 27.5996 17.8971 27.2871 17.9102V17.1875C27.7168 17.1875 28.0684 17.168 28.3418 17.1289C28.6283 17.0898 28.8496 17.0052 29.0059 16.875C29.1751 16.7318 29.2923 16.5365 29.3574 16.2891C29.4225 16.0286 29.4551 15.6771 29.4551 15.2344V5.82031C29.4551 5.07812 29.2663 4.58333 28.8887 4.33594C28.5111 4.07552 27.86 3.94531 26.9355 3.94531V3.22266C27.0918 3.2487 27.3262 3.26172 27.6387 3.26172C27.9512 3.26172 28.2767 3.26172 28.6152 3.26172C28.9538 3.26172 29.2728 3.26172 29.5723 3.26172C29.8717 3.2487 30.0931 3.23568 30.2363 3.22266L40.1387 15.1953V5.80078C40.1387 5.41016 40.1126 5.09766 40.0605 4.86328C40.0215 4.61589 39.9303 4.42708 39.7871 4.29688C39.6569 4.16667 39.4616 4.08203 39.2012 4.04297C38.9538 3.99089 38.6217 3.95833 38.2051 3.94531V3.20312C38.4525 3.21615 38.8105 3.22917 39.2793 3.24219C39.748 3.24219 40.2363 3.24219 40.7441 3.24219C41.252 3.24219 41.7337 3.24219 42.1895 3.24219C42.6582 3.22917 43.0098 3.21615 43.2441 3.20312V3.94531C42.8014 3.94531 42.4499 3.96484 42.1895 4.00391C41.9421 4.04297 41.7533 4.1276 41.623 4.25781C41.4928 4.375 41.4082 4.55729 41.3691 4.80469C41.3431 5.05208 41.3301 5.38411 41.3301 5.80078V18.1055ZM45.8176 5.64453C45.8176 5.29297 45.7915 5.00651 45.7395 4.78516C45.7004 4.5638 45.6158 4.39453 45.4855 4.27734C45.3553 4.14714 45.1665 4.0625 44.9191 4.02344C44.6717 3.97135 44.3397 3.94531 43.923 3.94531V3.24219C44.3137 3.25521 44.7564 3.26172 45.2512 3.26172C45.746 3.26172 46.2473 3.26172 46.7551 3.26172C47.2759 3.26172 47.7902 3.26172 48.298 3.26172C48.8189 3.26172 49.3072 3.25521 49.7629 3.24219C51.052 3.24219 52.1978 3.45052 53.2004 3.86719C54.203 4.27083 55.0494 4.8112 55.7395 5.48828C56.4296 6.16536 56.9569 6.94661 57.3215 7.83203C57.6861 8.70443 57.8684 9.60938 57.8684 10.5469C57.8684 11.4714 57.6991 12.3763 57.3605 13.2617C57.022 14.1471 56.5077 14.9284 55.8176 15.6055C55.1275 16.2956 54.2551 16.849 53.2004 17.2656C52.1587 17.6823 50.9348 17.8906 49.5285 17.8906C49.1509 17.8906 48.7147 17.8906 48.2199 17.8906C47.7382 17.8776 47.2369 17.8711 46.716 17.8711C46.2082 17.8711 45.7069 17.8776 45.2121 17.8906C44.7173 17.8906 44.2876 17.8906 43.923 17.8906V17.1484C44.3397 17.1484 44.6717 17.1289 44.9191 17.0898C45.1796 17.0508 45.3749 16.9661 45.5051 16.8359C45.6353 16.7057 45.7199 16.5234 45.759 16.2891C45.798 16.0547 45.8176 15.7422 45.8176 15.3516V5.64453ZM47.5949 15.3711C47.5949 15.7617 47.6145 16.0677 47.6535 16.2891C47.7056 16.5104 47.8163 16.6797 47.9855 16.7969C48.1418 16.9141 48.3697 16.9857 48.6691 17.0117C48.9686 17.0378 49.3658 17.0508 49.8605 17.0508C50.9283 17.0508 51.8462 16.875 52.6145 16.5234C53.3827 16.1719 54.0142 15.6966 54.509 15.0977C55.0038 14.4987 55.3684 13.8086 55.6027 13.0273C55.8371 12.2331 55.9543 11.3932 55.9543 10.5078C55.9543 8.48958 55.3619 6.91406 54.177 5.78125C52.9921 4.64844 51.371 4.08203 49.3137 4.08203C49.0793 4.08203 48.8775 4.08854 48.7082 4.10156C48.5389 4.10156 48.3827 4.10807 48.2395 4.12109C48.1092 4.12109 47.9921 4.1276 47.8879 4.14062C47.7837 4.14062 47.6861 4.14062 47.5949 4.14062V15.3711ZM74.602 10.4883C74.602 11.4518 74.4262 12.4023 74.0746 13.3398C73.723 14.2643 73.2283 15.0846 72.5902 15.8008C71.9522 16.5299 71.184 17.1159 70.2855 17.5586C69.4001 18.0013 68.4105 18.2227 67.3168 18.2227C66.3142 18.2227 65.3702 18.0208 64.4848 17.6172C63.5994 17.2005 62.8311 16.6471 62.1801 15.957C61.516 15.2669 60.9952 14.4661 60.6176 13.5547C60.24 12.6302 60.0512 11.6602 60.0512 10.6445C60.0512 9.68099 60.227 8.73698 60.5785 7.8125C60.9301 6.88802 61.4249 6.0612 62.0629 5.33203C62.7009 4.60286 63.4691 4.01693 64.3676 3.57422C65.279 3.11849 66.2816 2.89062 67.3754 2.89062C68.365 2.89062 69.296 3.09896 70.1684 3.51562C71.0538 3.93229 71.822 4.48568 72.473 5.17578C73.1371 5.87891 73.6579 6.69271 74.0355 7.61719C74.4132 8.52865 74.602 9.48568 74.602 10.4883ZM72.5512 11.0742C72.5512 10.306 72.4405 9.4987 72.2191 8.65234C71.9978 7.79297 71.6592 6.9987 71.2035 6.26953C70.7608 5.55339 70.1944 4.96094 69.5043 4.49219C68.8272 4.01042 68.0329 3.76953 67.1215 3.76953C66.3793 3.76953 65.6957 3.92578 65.0707 4.23828C64.4587 4.55078 63.9314 4.98047 63.4887 5.52734C63.0329 6.08724 62.6814 6.7513 62.434 7.51953C62.1996 8.28776 62.0824 9.1276 62.0824 10.0391C62.0824 10.8203 62.1931 11.6471 62.4145 12.5195C62.6358 13.3789 62.9744 14.1667 63.4301 14.8828C63.8858 15.612 64.4522 16.2109 65.1293 16.6797C65.8194 17.1484 66.6267 17.3828 67.5512 17.3828C68.3324 17.3828 69.029 17.2331 69.641 16.9336C70.266 16.6211 70.7934 16.1849 71.223 15.625C71.6527 15.0651 71.9783 14.401 72.1996 13.6328C72.434 12.8516 72.5512 11.9987 72.5512 11.0742Z" fill="#B1623E"></path><path d="M61 0.888672L74 0.888673" stroke="#B1623E"></path></svg>